<mxfile host="app.diagrams.net" modified="2023-04-19T00:15:56.730Z" agent="Mozilla/5.0 (Windows NT 10.0; Win64; x64) AppleWebKit/537.36 (KHTML, like Gecko) Chrome/93.0.4577.63 Safari/537.36 Edg/93.0.961.47" version="21.1.8" etag="s1XJHK1nCby_5PYROE_t" type="github">
  <diagram name="第 1 页" id="KuKHvHjNwTbAupqgn_qL">
    <mxGraphModel>
      <root>
        <mxCell id="0" />
        <mxCell id="1" parent="0" />
      </root>
    </mxGraphModel>
  </diagram>
</mxfile>
